# xmcd
#
# Track frame offsets: 
#        150
#        11278
#        22896
#        32062
#        42573
#        53034
#        63610
#        78656
#        91248
#        104977
#        115120
#        129571
#        140164
#        149338
#        161001
#        169975
#        181258
#        192629
#        201760
#        216186
#
# Disc length: 2992 seconds
#
# Revision: 0
# Processed by: cddbd v1.5.2PL0 Copyright (c) Steve Scherf et al.
# Submitted via: ExactAudioCopy v0.99pb5
#
DISCID=2c0bae14
DTITLE=Marty Robbins - 80 Original Hits And Rarities CDd3
DYEAR=1900
DGENRE=Country
TTITLE0=Aloha Oe
TTITLE1=You Only Want Me When You're Lonely
TTITLE2=Where'dya Go
TTITLE3=Hang My Head And Cry
TTITLE4=I'll Step Aside
TTITLE5=Bouquet Of Roses
TTITLE6=Rose Of Ol' Pawnee
TTITLE7=I'm So Lonesome I Could Cry
TTITLE8=Never Let You Cross My Mind
TTITLE9=All The World Is Lonely Now
TTITLE10=Have I Told You Lately That I Love You
TTITLE11=It's Too Late Now
TTITLE12=Moanin' The Blues
TTITLE13=Lovesick Blues
TTITLE14=Beautiful Ohio
TTITLE15=Down Where The Trade Winds Blow
TTITLE16=Now Is The Hour
TTITLE17=Crying Steel Guitar Waltz
TTITLE18=Constancy
TTITLE19=Sweetleilan
EXTD=
EXTT0=
EXTT1=
EXTT2=
EXTT3=
EXTT4=
EXTT5=
EXTT6=
EXTT7=
EXTT8=
EXTT9=
EXTT10=
EXTT11=
EXTT12=
EXTT13=
EXTT14=
EXTT15=
EXTT16=
EXTT17=
EXTT18=
EXTT19=
PLAYORDER=
